<svg version="1" xmlns="http://www.w3.org/2000/svg" width="933.333" height="933.333" viewBox="0 0 700.000000 700.000000"><path d="M31.5 1.9c-3.3.9-7.9 2.9-10.1 4.3C16.1 9.6 8 17.2 8 18.8c0 .7-.3 1.2-.7 1.2-.8 0-2.8 4.1-5.5 11C.7 33.9.5 81.2.5 308.5c0 150.7.3 276 .7 278.5 1.5 9.3 2 11.3 4.2 18.8 6.5 21.5 17.3 39.5 33.2 55.5 19.6 19.8 46.2 33.3 73.5 37.3 6.9 1.1 29.6 1.1 37.4.1 6.3-.7 22.9-4.9 28-7 44.3-18 74.8-55 83.1-100.7 1.6-8.8 1.7-28.5 1.7-280 .1-148.8-.2-272.3-.6-274.6C259.1 19.5 245.2 5 228 1.1c-2.9-.7-37.6-1-97.5-1-85.1 0-93.5.2-99 1.8zM175 131.2V175l-43.7-.2-43.8-.3-.1-42.5c0-23.4.1-43 .3-43.5.2-.7 15.1-1.1 43.8-1.1H175v43.8zm0 175V350H87.5v-43.3c-.1-23.7.2-43.4.6-43.7.4-.3 20.1-.5 43.8-.5H175v43.7zm-29.9 233c6.8 3.2 12.1 8.5 15.7 15.7 2.3 4.8 2.7 6.8 2.6 14.1 0 6.8-.5 9.5-2.4 13.5-8.9 18.3-31.3 24.5-48.1 13.2-9.3-6.3-14-15.4-14.2-27.3-.1-6.2.4-8.1 3.1-13.7 3.3-6.6 9.2-12.9 14.2-14.9 8.3-3.5 9.9-3.8 16.6-3.5 4.8.3 8.7 1.2 12.5 2.9zM429.5 94.4c-11.2 2.7-13.3 4.6-69.5 60.8L306.3 209v185c0 101.7.1 185 .2 185s61.1-61 135.6-135.6c74.5-74.5 139.8-139.9 145.2-145.2 9.5-9.5 15.1-17.2 17.6-24.2 1.9-5.7 2.5-17.1 1.1-23.1-3-12.9-2.8-12.7-74-84-70.3-70.4-68.9-69.1-81.5-72.5-6.1-1.7-14.3-1.7-21 0zM379 568.4L247.5 699.5l205.5.3c150.4.2 207.1 0 211.5-.9 13.6-2.5 25.7-11.9 31.4-24.4 4-9 4.1-9.3 4.1-105.5 0-100.7.1-98.5-5.6-109.1-5.6-10.2-18.3-19.5-29.4-21.5-2.5-.4-38.2-.9-79.5-.9l-75-.2L379 568.4z"/></svg>