<?xml version="1.0" standalone="no"?>
<!DOCTYPE svg PUBLIC "-//W3C//DTD SVG 20010904//EN"
 "http://www.w3.org/TR/2001/REC-SVG-20010904/DTD/svg10.dtd">
<svg version="1.0" xmlns="http://www.w3.org/2000/svg"
 width="700.000000pt" height="700.000000pt" viewBox="0 0 700.000000 700.000000"
 preserveAspectRatio="xMidYMid meet">
<metadata>
Created by potrace 1.11, written by Peter Selinger 2001-2013
</metadata>
<g transform="translate(0.000000,700.000000) scale(0.100000,-0.100000)"
fill="#000000" stroke="none">
<path d="M315 6981 c-33 -9 -79 -29 -101 -43 -53 -34 -134 -110 -134 -126 0
-7 -3 -12 -7 -12 -8 0 -28 -41 -55 -110 -11 -29 -13 -502 -13 -2775 0 -1507 3
-2760 7 -2785 15 -93 20 -113 42 -188 65 -215 173 -395 332 -555 196 -198 462
-333 735 -373 69 -11 296 -11 374 -1 63 7 229 49 280 70 443 180 748 550 831
1007 16 88 17 285 17 2800 1 1488 -2 2723 -6 2746 -26 169 -165 314 -337 353
-29 7 -376 10 -975 10 -851 0 -935 -2 -990 -18z m1435 -1293 l0 -438 -437 2
-438 3 -1 425 c0 234 1 430 3 435 2 7 151 11 438 11 l435 0 0 -438z m0 -1750
l0 -438 -437 0 -438 0 0 433 c-1 237 2 434 6 437 4 3 201 5 438 5 l431 0 0
-437z m-299 -2330 c68 -32 121 -85 157 -157 23 -48 27 -68 26 -141 0 -68 -5
-95 -24 -135 -89 -183 -313 -245 -481 -132 -93 63 -140 154 -142 273 -1 62 4
81 31 137 33 66 92 129 142 149 83 35 99 38 166 35 48 -3 87 -12 125 -29z"/>
<path d="M4295 6056 c-112 -27 -133 -46 -695 -608 l-537 -538 0 -1850 c0
-1017 1 -1850 2 -1850 1 0 611 610 1356 1356 745 745 1398 1399 1452 1452 95
95 151 172 176 242 19 57 25 171 11 231 -30 129 -28 127 -740 840 -703 704
-689 691 -815 725 -61 17 -143 17 -210 0z"/>
<path d="M3790 1316 l-1315 -1311 2055 -3 c1504 -2 2071 0 2115 9 136 25 257
119 314 244 40 90 41 93 41 1055 0 1007 1 985 -56 1091 -56 102 -183 195 -294
215 -25 4 -382 9 -795 9 l-750 2 -1315 -1311z"/>
</g>
</svg>
