<svg xmlns="http://www.w3.org/2000/svg" height="100" width="100">
    <defs>
        <linearGradient gradientUnits="userSpaceOnUse" gradientTransform="scale(.86223 1.15978)" x1="107.16" y1=".551" x2="186.135" y2="65.424" id="a">
            <stop stop-color="#4285EB" offset="0%" />
            <stop stop-color="#2EC7FF" offset="100%" />
        </linearGradient>
        <linearGradient gradientUnits="userSpaceOnUse" gradientTransform="scale(.86223 1.15978)" x1="120.082" y1=".551" x2="93.352" y2="186.371" id="b">
            <stop stop-color="#29CDFF" offset="0%" />
            <stop stop-color="#148EFF" offset="37.86%" />
            <stop stop-color="#0A60FF" offset="100%" />
        </linearGradient>
        <linearGradient gradientUnits="userSpaceOnUse" gradientTransform="scale(.79714 1.25448)" x1="231.541" y1="41.073" x2="198.845" y2="121.545" id="c">
            <stop stop-color="#FA816E" offset="0%" />
            <stop stop-color="#F74A5C" offset="41.473%" />
            <stop stop-color="#F51D2C" offset="100%" />
        </linearGradient>
        <linearGradient gradientUnits="userSpaceOnUse" gradientTransform="scale(1.0004 .9996)" x1="109.031" y1="60.048" x2="91.25" y2="131.118" id="d">
            <stop stop-color="#FA8E7D" offset="0%" />
            <stop stop-color="#F74A5C" offset="51.264%" />
            <stop stop-color="#F51D2C" offset="100%" />
        </linearGradient>
    </defs>
    <g transform="matrix(.50294 0 0 .50326 -.33 -.322)" fill="none" fill-rule="evenodd">
        <g fill-rule="nonzero">
            <path
                d="M91.588 4.177L4.18 91.513a11.981 11.981 0 0 0 0 16.974l87.408 87.336a12.005 12.005 0 0 0 16.989 0l36.648-36.618c4.209-4.205 4.209-11.023 0-15.228-4.208-4.205-11.031-4.205-15.24 0l-27.783 27.76c-1.17 1.169-2.945 1.169-4.114 0l-69.802-69.744c-1.17-1.169-1.17-2.942 0-4.11l69.802-69.745c1.17-1.169 2.944-1.169 4.114 0l27.783 27.76c4.209 4.205 11.032 4.205 15.24 0 4.209-4.205 4.209-11.022 0-15.227L108.581 4.056c-4.719-4.594-12.312-4.557-16.993.12z"
                fill="url(#a)"
            />
            <path
                d="M91.588 4.177L4.18 91.513a11.981 11.981 0 0 0 0 16.974l87.408 87.336a12.005 12.005 0 0 0 16.989 0l36.648-36.618c4.209-4.205 4.209-11.023 0-15.228-4.208-4.205-11.031-4.205-15.24 0l-27.783 27.76c-1.17 1.169-2.945 1.169-4.114 0l-69.802-69.744c-1.17-1.169-1.17-2.942 0-4.11l69.802-69.745c2.912-2.51 7.664-7.596 14.642-8.786 5.186-.883 10.855 1.062 17.009 5.837L108.58 4.056c-4.719-4.594-12.312-4.557-16.993.12z"
                fill="url(#b)"
            />
            <path
                d="M153.686 135.855c4.208 4.205 11.031 4.205 15.24 0l27.034-27.012a11.98 11.98 0 0 0 0-16.974l-27.27-27.15c-4.218-4.2-11.043-4.195-15.254.013-4.209 4.205-4.209 11.022 0 15.227l18.418 18.403c1.17 1.169 1.17 2.943 0 4.111l-18.168 18.154c-4.209 4.205-4.209 11.023 0 15.228z"
                fill="url(#c)"
            />
        </g>
        <ellipse fill="url(#d)" cx="100.519" cy="100.437" rx="23.6" ry="23.581" />
    </g>
</svg>
