<svg xmlns="http://www.w3.org/2000/svg" height="512" width="512">
<path d="M32 0A32 32 0 0 0 0 32v384a96 96 0 0 0 192 0V32a32 32 0 0 0-32-32H32zm32 64h64v64H64V64zm0 128h64v64H64v-64zm31.965 200a24 24 0 0 1 .012 0 24 24 0 0 1 .011 0A24 24 0 0 1 120 416a24 24 0 0 1-24 24 24 24 0 0 1-.035-48zM480 320H373.09L186.68 506.51c-2.06 2.07-4.5 3.58-6.68 5.49h300a32 32 0 0 0 32-32V352a32 32 0 0 0-32-32z" fill="#484e4a"/><path d="M434.66 167.71L344.5 77.36a31.83 31.83 0 0 0-45-.07l-.07.07L224 152.88V424l210.66-211.1a32 32 0 0 0 0-45.19z" fill="#e9cb47"/>
</svg>