<?xml version="1.0" encoding="UTF-8" standalone="no"?>
<svg
   xmlns:dc="http://purl.org/dc/elements/1.1/"
   xmlns:cc="http://creativecommons.org/ns#"
   xmlns:rdf="http://www.w3.org/1999/02/22-rdf-syntax-ns#"
   xmlns:svg="http://www.w3.org/2000/svg"
   xmlns="http://www.w3.org/2000/svg"
   xmlns:sodipodi="http://sodipodi.sourceforge.net/DTD/sodipodi-0.dtd"
   xmlns:inkscape="http://www.inkscape.org/namespaces/inkscape"
   inkscape:version="1.0 (4035a4fb49, 2020-05-01)"
   sodipodi:docname="app-icon.svg"
   id="svg6"
   version="1.1"
   width="512"
   height="512">
  <metadata
     id="metadata12">
    <rdf:RDF>
      <cc:Work
         rdf:about="">
        <dc:format>image/svg+xml</dc:format>
        <dc:type
           rdf:resource="http://purl.org/dc/dcmitype/StillImage" />
      </cc:Work>
    </rdf:RDF>
  </metadata>
  <defs
     id="defs10" />
  <sodipodi:namedview
     inkscape:current-layer="svg6"
     inkscape:cy="256"
     inkscape:cx="256"
     inkscape:zoom="1.0269724"
     showgrid="false"
     id="namedview8"
     inkscape:window-height="480"
     inkscape:window-width="640"
     inkscape:pageshadow="2"
     inkscape:pageopacity="0"
     guidetolerance="10"
     gridtolerance="10"
     objecttolerance="10"
     borderopacity="1"
     bordercolor="#666666"
     pagecolor="#ffffff" />
  <path
     style="fill:#1a202c;fill-opacity:1"
     id="path2"
     fill="#484e4a"
     d="M32 0A32 32 0 0 0 0 32v384a96 96 0 0 0 192 0V32a32 32 0 0 0-32-32H32zm32 64h64v64H64V64zm0 128h64v64H64v-64zm31.965 200a24 24 0 0 1 .012 0 24 24 0 0 1 .011 0A24 24 0 0 1 120 416a24 24 0 0 1-24 24 24 24 0 0 1-.035-48zM480 320H373.09L186.68 506.51c-2.06 2.07-4.5 3.58-6.68 5.49h300a32 32 0 0 0 32-32V352a32 32 0 0 0-32-32z" />
  <path
     style="fill:#f6ad55;fill-opacity:1"
     id="path4"
     fill="#e9cb47"
     d="M434.66 167.71L344.5 77.36a31.83 31.83 0 0 0-45-.07l-.07.07L224 152.88V424l210.66-211.1a32 32 0 0 0 0-45.19z" />
</svg>
